Coordinates
version=1
nRows=7
nColumns=40
inDegrees=yes

Units are S.I. units (second, meters, Newtons, ...)
Angles are in degrees.

endheader
time	pelvis_tilt	pelvis_list	pelvis_rotation	pelvis_tx	pelvis_ty	pelvis_tz	hip_flexion_r	hip_adduction_r	hip_rotation_r	knee_angle_r	knee_angle_r_beta	ankle_angle_r	subtalar_angle_r	mtp_angle_r	hip_flexion_l	hip_adduction_l	hip_rotation_l	knee_angle_l	knee_angle_l_beta	ankle_angle_l	subtalar_angle_l	mtp_angle_l	lumbar_extension	lumbar_bending	lumbar_rotation	arm_flex_r	arm_add_r	arm_rot_r	elbow_flex_r	pro_sup_r	wrist_flex_r	wrist_dev_r	arm_flex_l	arm_add_l	arm_rot_l	elbow_flex_l	pro_sup_l	wrist_flex_l	wrist_dev_l
      2.61000000	    -11.20550372	     -3.99981919	      0.87114588	     -0.74354434	      0.95308464	      0.34718999	     39.80766730	      3.89053953	     -6.55942510	     27.65750540	     27.65750540	     -1.46752512	      0.00000000	      0.00000000	     -0.26795597	     -8.55770611	     -0.29085793	    102.68836361	    102.68836361	    -14.68979380	      0.00000000	      0.00000000	    -20.40880561	     11.03935278	     -5.07491766	    -36.09616339	    -22.74392559	    -29.33743397	     91.43963272	     82.73168777	      0.00000000	      0.00000000	    -10.07931250	    -22.96606042	     -1.65299737	    103.65168660	     84.56576967	      0.00000000	      0.00000000
      2.61500000	    -11.19015917	     -4.35834595	      0.60502737	     -0.71551332	      0.95200648	      0.34824253	     39.25349185	      4.45804936	     -6.65553372	     30.27284271	     30.27284271	      1.74153227	      0.00000000	      0.00000000	      2.08150994	     -9.24343468	      0.15385730	    105.90691429	    105.90691429	    -14.29282036	      0.00000000	      0.00000000	    -20.55998278	     11.05266948	     -4.36296139	    -33.40254375	    -23.50388578	    -27.20157094	     91.27248988	     74.78980674	      0.00000000	      0.00000000	    -10.49997741	    -21.50846655	     -1.80146467	     99.67757751	     81.39419818	      0.00000000	      0.00000000
      2.62000000	    -11.10342127	     -4.64550018	      0.41592111	     -0.68750843	      0.95163366	      0.34917482	     38.44702927	      4.92952104	     -6.58570281	     32.62508210	     32.62508210	      4.73905885	      0.00000000	      0.00000000	      4.47244575	     -9.80694139	      0.76573007	    108.82528967	    108.82528967	    -14.00062215	      0.00000000	      0.00000000	    -20.79065316	     10.99852149	     -3.74379665	    -30.44025453	    -24.08431488	    -25.60635464	     90.71108349	     74.71511174	      0.00000000	      0.00000000	    -10.77007694	    -20.09662204	     -2.26167508	     95.51960562	     81.00367644	      0.00000000	      0.00000000
      2.62500000	    -10.96823728	     -4.84514851	      0.26989444	     -0.65946296	      0.95188191	      0.35002306	     37.39345190	      5.31685080	     -6.36261237	     34.64606960	     34.64606960	      7.44278400	      0.00000000	      0.00000000	      6.90363001	    -10.22578396	      1.47069102	    111.42546442	    111.42546442	    -13.77128280	      0.00000000	      0.00000000	    -21.02410209	     10.84608417	     -3.20225589	    -27.61158650	    -24.55513160	    -22.91877498	     91.36870061	     54.30174746	      0.00000000	      0.00000000	    -11.08866278	    -18.85666200	     -2.05447184	     92.19290283	     64.94039474	      0.00000000	      0.00000000
      2.63000000	    -10.80879775	     -4.95201798	      0.13029791	     -0.63132532	      0.95263416	      0.35083242	     36.11452335	      5.63329245	     -6.01061158	     36.30812879	     36.30812879	      9.81195255	      0.00000000	      0.00000000	      9.36890281	    -10.49910218	      2.19153042	    113.70080491	    113.70080491	    -13.55351302	      0.00000000	      0.00000000	    -21.26089246	     10.59135254	     -2.70401702	    -24.63597260	    -24.80085494	    -21.16206343	     91.46344692	     46.36364925	      0.00000000	      0.00000000	    -11.32252330	    -17.69562981	     -2.29226196	     88.88988649	     51.81920411	      0.00000000	      0.00000000
      2.63500000	    -10.64149985	     -4.97049097	     -0.03396291	     -0.60305498	      0.95378047	      0.35164675	     34.63343741	      5.89014249	     -5.55269797	     37.61273938	     37.61273938	     11.83162988	      0.00000000	      0.00000000	     11.85264195	    -10.64430783	      2.86058177	    115.65093394	    115.65093394	    -13.30187629	      0.00000000	      0.00000000	    -21.46654674	     10.23144560	     -2.24341118	    -21.66771567	    -24.86676312	    -19.87470945	     91.13870407	     46.33433979	      0.00000000	      0.00000000	    -11.48259341	    -16.60503825	     -3.16186051	     84.83077116	     51.44143073	      0.00000000	      0.00000000
      2.64000000	    -10.47182983	     -4.91123256	     -0.24266715	     -0.57462085	      0.95523926	      0.35250135	     32.96772442	      6.09465788	     -5.00632413	     38.57859840	     38.57859840	     13.49831351	      0.00000000	      0.00000000	     14.33116381	    -10.68966543	      3.42896926	    117.27942241	    117.27942241	    -12.98063579	      0.00000000	      0.00000000	    -21.61149245	      9.77120888	     -1.77502098	    -18.92631876	    -24.80496348	    -18.55756223	     91.49092368	     40.28288515	      0.00000000	      0.00000000	    -11.72289173	    -15.66369636	     -3.88515835	     81.59390555	     41.54389271	      0.00000000	      0.00000000
